<svg width="534" height="534" viewBox="0 0 534 534" fill="none" xmlns="http://www.w3.org/2000/svg">
<path d="M244.667 121.867C226.133 124.933 204.933 133.333 188.4 144.133C184.133 146.933 183.067 148 185.333 147.467C196.4 144.667 217.733 142.4 233.333 142.4C255.067 142.4 270.133 144.267 285.733 148.933C296.533 152.133 298.133 152.4 305.2 150.933C309.333 150 314.933 149.333 317.467 149.333C329.2 149.333 353.2 166.267 366.533 184C380.933 203.067 383.733 211.2 377.2 214.8C373.467 216.667 368.667 213.333 366 207.333C361.067 195.2 337.733 171.2 327.333 167.2C322.133 165.333 320.267 165.2 313.2 166.533C308.667 167.467 303.6 168.8 301.867 169.733C298.667 171.067 299.067 171.333 308.133 175.6C332.4 186.8 350.4 205.733 359.733 230.267C367.067 249.2 368.4 272.8 363.333 292C360.133 304.267 361.333 302.933 372.933 282C385.2 259.867 395.2 234 398.8 215.067C400.667 204.933 399.467 201.2 388.667 184.8C369.467 155.6 337.2 132.533 304 124C289.6 120.4 260.267 119.333 244.667 121.867Z" fill="#FCCF00"/>
<path d="M215.333 158.133C192.4 161.6 170.667 167.733 158.4 174.267C150.933 178.133 148 180.667 143.2 187.467C130.4 205.467 121.733 229.733 120.533 251.333L119.867 263.333L124.667 254.533C131.067 242.933 144.267 226.4 156.267 215.333C181.2 192.267 219.867 173.867 259.6 166.267C267.867 164.8 274.267 163.067 273.6 162.533C270 159.333 228.533 156.133 215.333 158.133Z" fill="#FCCF00"/>
<path d="M220 271.333V348H236H252V333.467V318.933L273.733 318.533L295.333 318L305.6 313.067C311.2 310.4 318.533 305.733 321.867 302.667C344.133 282.133 347.733 249.067 330.667 223.067C324 212.8 316.533 206.4 305.733 201.2C293.733 195.467 287.067 194.667 251.867 194.667H220V271.333ZM294.133 230C311.2 240.667 314.533 265.2 300.8 279.467C293.467 286.933 285.333 289.333 266.4 289.333H252V257.2V225.067L269.733 225.6C286.933 226 287.867 226.133 294.133 230Z" fill="#FCCF00"/>
<path d="M176.667 218.933C143.333 245.333 123.867 285.333 129.867 314.533C133.6 332.4 146.267 354.4 162.267 370.933C174.533 383.467 181.467 386.8 196.667 387.733L207.333 388.267L198 381.6C167.2 359.6 148.133 329.467 145.867 299.333C144.8 286.533 146.267 282.667 151.733 282.667C156.8 282.667 158.667 284.933 158.667 290.933C158.667 304.8 165.867 326.533 174.8 339.467C181.733 349.6 194.8 362.667 204.667 369.333C221.333 380.533 221.733 380.667 238 380.533C252.933 380.4 265.467 378 280.667 372.133L287.333 369.6L272.533 370.267C224 372.667 185.067 345.333 170.533 298.667C167.867 290.133 167.333 285.867 167.333 270C167.333 253.733 167.733 250.133 170.533 242C174 232 177.6 224.133 181.6 218.267C184.933 213.467 183.2 213.733 176.667 218.933Z" fill="#FCCF00"/>
<path d="M409.467 241.467C407.067 249.733 398.133 270.4 390.533 285.467C365.6 335.2 340.133 363.867 304.533 381.733C284.533 391.733 250.667 399.333 218 400.933L202 401.733L210.4 405.733C229.867 414.8 260.133 419.733 281.333 417.333C335.733 411.2 380.133 379.733 402.933 331.2C413.067 309.467 417.6 280.8 414.933 256C414 248 412.8 240.133 412.267 238.533C411.333 236.133 410.933 236.4 409.467 241.467Z" fill="#FCCF00"/>
</svg>
